<svg width="104" height="29" viewBox="0 0 104 29" fill="none" xmlns="http://www.w3.org/2000/svg">
<path d="M0.32 29V0.199999H26.84V5.52H5.64V11.92H22.68V17.28H5.64V23.68H26.84V29H0.32ZM30.785 29V23.28L46.625 11.04H30.785V5.8H54.345V11.52L38.505 23.76H54.345V29H30.785ZM58.6347 29V11.32C58.6347 10.3067 58.888 9.38667 59.3947 8.56C59.9014 7.73333 60.568 7.06666 61.3947 6.56C62.248 6.05333 63.168 5.8 64.1547 5.8H77.0347V11.04H64.3547C64.2214 11.04 64.1014 11.0933 63.9947 11.2C63.9147 11.28 63.8747 11.3867 63.8747 11.52V29H58.6347ZM85.6 29C84.5867 29 83.6533 28.7467 82.8 28.24C81.9733 27.7333 81.3067 27.0667 80.8 26.24C80.32 25.4133 80.08 24.4933 80.08 23.48V14.76H98.4V11.52C98.4 11.3867 98.3467 11.28 98.24 11.2C98.16 11.0933 98.0533 11.04 97.92 11.04H80.08V5.8H98.12C99.1333 5.8 100.053 6.05333 100.88 6.56C101.733 7.06666 102.4 7.73333 102.88 8.56C103.387 9.38667 103.64 10.3067 103.64 11.32V29H85.6ZM85.8 23.76H98.4V19.48H85.32V23.28C85.32 23.4133 85.36 23.5333 85.44 23.64C85.5467 23.72 85.6667 23.76 85.8 23.76Z" fill="url(#paint0_linear_233_200)"/>
<defs>
<linearGradient id="paint0_linear_233_200" x1="13.75" y1="14" x2="94.375" y2="14" gradientUnits="userSpaceOnUse">
<stop stop-color="#E107E5"/>
<stop offset="0.694961" stop-color="#9C00FB"/>
<stop offset="1" stop-color="#20AFFF"/>
</linearGradient>
</defs>
</svg>
